<svg height="512" viewBox="0 0 64 64" width="512" xmlns="http://www.w3.org/2000/svg"><g id="Email"><path d="m54 19.69v.022l-12.857-9.712-7.863-5.94a1.994 1.994 0 0 0 -2.56 0l-7.863 5.94-12.857 9.712v-.022l-7 5.31 7 5.79 14.75 12.21 5.97-4.94a1.994 1.994 0 0 1 2.56 0l5.97 4.94 14.75-12.21 7-5.79z" fill="#cc7400"/><path d="m54 10v20.79l-14.75 12.21-5.97-4.94a1.994 1.994 0 0 0 -2.56 0l-5.97 4.94-14.75-12.21v-20.79z" fill="#d1e7f8"/><path d="m33.28 38.06a1.994 1.994 0 0 0 -2.56 0l-5.97 4.94-21.75 18h58l-21.75-18z" fill="#ffa733"/><path d="m10 30.79-7-5.79v36l21.75-18z" fill="#ff9811"/><path d="m39.25 43 21.75 18v-36l-7 5.79z" fill="#ff9811"/><path d="m7.83 57-4.83 4 4.833-4z" fill="#cc7400"/><path d="m46 55h-35.75l-7.25 6h58l-9.695-8.023a7.96 7.96 0 0 1 -5.305 2.023z" fill="#ff9811"/><path d="m3 55v6l7.25-6z" fill="#ee8700"/><path d="m54 30.79v16.21a7.973 7.973 0 0 1 -2.695 5.977l9.695 8.023v-36z" fill="#ee8700"/><g fill="#231f20"><path d="m61.594 24.217.01-.014-6.604-5.01v-9.193a1 1 0 0 0 -1-1h-12.434l-7.749-5.875a3 3 0 0 0 -3.631 0l-7.752 5.875h-12.434a1 1 0 0 0 -1 1v9.193l-6.6 5.007.01.014a.979.979 0 0 0 -.41.786v36a1 1 0 0 0 1 1h58a1 1 0 0 0 1-1v-36a.979.979 0 0 0 -.406-.783zm-6.594-2.517 4.39 3.33-4.39 3.635zm-23.6-16.986a.986.986 0 0 1 1.209 0l5.647 4.286h-12.512zm-20.4 6.286h42v19.32l-13.75 11.38-5.328-4.408a2.985 2.985 0 0 0 -3.839 0l-5.333 4.408-13.75-11.38zm-6.39 14.034 4.39-3.334v6.961zm-.61 2.091 19.181 15.875-19.181 15.874zm1.777 32.875 25.586-21.174a.992.992 0 0 1 1.279.005l25.581 21.169zm54.223-1.126-19.181-15.874 19.181-15.875z"/><path d="m32 33h5a1 1 0 0 0 0-2h-5a7 7 0 0 1 0-14h2a5.006 5.006 0 0 1 5 5v4a1 1 0 0 1 -2 0v-4a3 3 0 0 0 -3-3h-2a5 5 0 1 0 3.466 8.59 2.994 2.994 0 0 0 5.534-1.59v-4a7.008 7.008 0 0 0 -7-7h-2a9 9 0 0 0 0 18zm0-6a3 3 0 0 1 0-6h2a1 1 0 0 1 1 1v2a3 3 0 0 1 -3 3z"/></g></g></svg>